# xmcd
#
# Track frame offsets:
# 150
# 9292
# 18365
# 35907
# 47255
# 59436
# 68317
# 85380
# 93677
# 113006
# 124725
# 137285
# 153288
# 171996
# 183582
# 195539
# 204926
# 217079
# 227924
# 242865
# 265983
# 281092
# 293364
# 305760
# 331648
#
# Disc length: 4675 seconds
#
#
# Revision: 1
# Processed by: cddbd v1.5.1PL0 Copyright (c) Steve Scherf et al.
# Submitted via: FreeRIP 2.51 
#
DISCID=5d124119
DTITLE=Texas Baby - Texas Baby
DYEAR=2003
DGENRE=Country
TTITLE0=59 Frankie Laine  Rawhide
TTITLE1=57 Patsy Cline  Walking after Midnight
TTITLE2=91 FSK  When it rains in Texas
TTITLE3=66 Leroy Pullins  I'am a Nut
TTITLE4=74 Dolly Parton  Jolene
TTITLE5=62 Anita Carter  Ring of Fire
TTITLE6=66 Johnny Cash  Riders in the Sky
TTITLE7=64 Roger Milller  Dang me
TTITLE8=00 The Soggy Bottom Boys  I'm a man of constant sorrow
TTITLE9=53 Rusty Draper  Cambler's Guitar
TTITLE10=67Hugo Montenegro  The God the Bad and the Ugly
TTITLE11=03 Dreher Bügel  Two Guns in a Rope
TTITLE12=03 Cow  Household full of Strangers
TTITLE13=52 Hank Williams  Kaw - Liga
TTITLE14=02 Ian Calford and The Brakeman  So Doggone alone
TTITLE15=03 Jim Wayne Swingtett  Caroline
TTITLE16=57 Bobby Helms  Fraulein
TTITLE17=75 Statler Brother  Flowers on the Wall
TTITLE18=01 Giant Sand  Nowhere
TTITLE19=01 Billy Bob  Thornton  Lost Highway
TTITLE20=01 Willie Nilson  I'm my own Grandpa
TTITLE21=54 Ray Price  Release Me
TTITLE22=72 Bill Monroe  Mule Skiner Blues
TTITLE23=66 Lee Hazelwood  These Boots are made for walking
TTITLE24=Daten Track
EXTD=YEAR: 2003
EXTT0=
EXTT1=
EXTT2=
EXTT3=
EXTT4=
EXTT5=
EXTT6=
EXTT7=
EXTT8=
EXTT9=
EXTT10=
EXTT11=
EXTT12=
EXTT13=
EXTT14=
EXTT15=
EXTT16=
EXTT17=
EXTT18=
EXTT19=
EXTT20=
EXTT21=
EXTT22=
EXTT23=
EXTT24=
PLAYORDER=
